# xmcd CD database file
#
# Track frame offsets:
#	150
#	19223
#	28275
#	37357
#	40101
#	69176
#	72575
#	91079
#	97935
#	112890
#	118288
#	141044
#	151005
#	168586
#
# Disc length: 3198 seconds
#
# Revision: 0
# Processed by: cddbd v1.5.2PL0 Copyright (c) Steve Scherf et al.
# Submitted via: CDex 1.81
#
DISCID=ba0c7c0e
DTITLE=Susanne Paul's Move Quartet - El Camino
DYEAR=2013
DGENRE=Jazz
TTITLE0=Basics of Birds
TTITLE1=Panache Bleu
TTITLE2=Choral
TTITLE3=Is It Tango?
TTITLE4=Lamento
TTITLE5=Space Insects
TTITLE6=Would It Be White
TTITLE7=Footnotes
TTITLE8=At Hulot's Table
TTITLE9=Gunslinger
TTITLE10=Baobab
TTITLE11=Postcard to C.
TTITLE12=Tempesta
TTITLE13=El Camino
EXTD=YEAR: 2013
EXTT0=
EXTT1=
EXTT2=
EXTT3=
EXTT4=
EXTT5=
EXTT6=
EXTT7=
EXTT8=
EXTT9=
EXTT10=
EXTT11=
EXTT12=
EXTT13=
PLAYORDER=
